<?xml version="1.0" encoding="UTF-8"?>
<svg width="32px" height="37px" viewBox="0 0 32 37" version="1.1" xmlns="http://www.w3.org/2000/svg" xmlns:xlink="http://www.w3.org/1999/xlink">
    <!-- Generator: Sketch 51.2 (57519) - http://www.bohemiancoding.com/sketch -->
    <title>Fill 1</title>
    <desc>Created with Sketch.</desc>
    <defs></defs>
    <g id="Symbols" stroke="none" stroke-width="1" fill="none" fill-rule="evenodd">
        <g id="footer" transform="translate(-95.000000, -61.000000)" fill="#FF7901">
            <g id="Fill-1">
                <path d="M100.698281,94.6057289 C102.438015,98.8510732 103.162904,97.9727261 104.322726,97.8263349 C105.482548,97.6799437 109.396949,96.0696407 110.701749,93.1418171 C112.006549,90.2139935 116.500861,78.9418726 122.299972,69.4264458 C122.299972,69.4264458 126.504328,63.131625 126.649306,62.3996691 C126.794284,61.6677132 127.084239,59.911019 122.589928,61.9604956 C122.589928,61.9604956 116.935794,65.1811015 108.527082,81.8696962 L107.512238,84.0655639 C107.512238,84.0655639 106.787349,85.8222581 105.917482,84.2119551 C105.047615,82.6016521 103.887793,79.9666108 103.307882,78.7954814 C102.72797,77.6243519 101.278193,77.4779607 99.3934812,78.0635255 C97.50877,78.6490902 93.8843252,79.8202196 95.3341031,82.8944344 C95.3341031,82.8944344 98.9585479,90.3603847 100.698281,94.6057289 Z"></path>
            </g>
        </g>
    </g>
</svg>